<svg height="35" viewBox="0 0 35 35" width="35" xmlns="http://www.w3.org/2000/svg">
    <circle cx="17.5" cy="17.5"  r="17.5" />
    <path d="m18.339 6.443a2.219 2.219 0 0 0 -1.561-1.571 52.435 52.435 0 0 0 -6.9-.371 52.435 52.435 0 0 0 -6.9.371 2.219 2.219 0 0 0 -1.559 1.571 23.276 23.276 0 0 0 -.369 4.278 23.276 23.276 0 0 0 .369 4.279 2.186 2.186 0 0 0 1.561 1.545 52.435 52.435 0 0 0 6.9.371 52.435 52.435 0 0 0 6.9-.371 2.186 2.186 0 0 0 1.559-1.545 23.276 23.276 0 0 0 .369-4.278 23.276 23.276 0 0 0 -.369-4.278zm-10.266 6.9v-5.243l4.615 2.626-4.615 2.62z" fill="#fff" transform="translate(7.6 6.061)"/>
</svg>